<svg version="1" xmlns="http://www.w3.org/2000/svg" width="1998.667" height="1998.667" viewBox="0 0 1499.000000 1499.000000"><path d="M.9 1.9C.8 4 .8 1494 .9 1496.3c.1 1.6 36.2 1.7 748.9 1.5l748.7-.3V748.9l.1-748.6L749.8.2C59 .2 1 .4.9 1.9zm1392.6 747.3V1393H106l-.1-2.3V110.3l.1-5.2 643.8.2 643.7.2v643.7z"/><path d="M251 388.3v128.3l254.9-.1h255l9.3-9c5.1-5 12.7-12.2 16.9-16 4.1-3.9 13.6-12.6 21-19.5 13.2-12.2 60-58.8 66.9-66.5 17.6-19.7 30.7-41.9 33.6-56.8 4.9-25.8-1.6-46.1-20.6-64.5-7.4-7.2-18.3-15.2-28.1-20.6l-6.6-3.6H251v128.3z"/><path d="M881.7 263c2.9 1.6 5.5 3 5.7 3 1 0 21 12.4 22.6 14 .3.3 2.3 1.8 4.5 3.5 6.5 4.8 17.7 16.6 22 23 13.8 20.8 14.5 44.9 2.2 70.9-12.8 26.9-34.7 52.6-82.8 97-3.5 3.3-11.5 10.7-17.8 16.5-6.2 5.8-13 12.2-15.1 14.1-2.1 1.9-9.1 8.4-15.6 14.5-10.9 10.2-15.3 14.3-33.4 31.2-3.6 3.4-7.8 7.4-9.5 8.9-1.6 1.5-9.5 8.8-17.5 16.3s-17.4 16.3-21 19.7c-3.6 3.3-9.6 9-13.5 12.6-3.8 3.7-8.8 8.3-11 10.4-3.3 3-24.1 22.6-34.5 32.4-1.4 1.4-8 7.5-14.6 13.6-6.5 6.2-14.8 14-18.4 17.4-6.3 6-27 25.5-34 32-1.9 1.8-9.6 9-17 16-7.4 7.1-15.3 14.5-17.5 16.6-2.2 2-10.1 9.4-17.5 16.5-7.4 7-15.3 14.5-17.6 16.6-2.2 2.1-10.8 10.2-19 17.9-8.2 7.8-16.5 15.7-18.5 17.5-2 1.9-10.6 10-19 18-8.5 8-16.7 15.8-18.4 17.3-1.6 1.5-9.3 8.8-17 16.1-7.7 7.3-15.8 15-18 17-2.2 2.1-10.7 10.1-18.9 17.9-8.2 7.7-16.6 15.7-18.6 17.6-11.1 10.5-32 30.2-35 33-41.3 38.2-62.2 59.5-70.2 71.5-8.4 12.6-14.1 23.2-18.5 34.3-3.5 9.2-7.8 24-8.7 30.7-.3 2.2-.9 5.6-1.2 7.5-1.2 5.9-.8 34 .5 42.5 3 19.8 10.2 38.8 19.5 51.9 8.9 12.6 24.8 26 40 34 8.2 4.3 24 10 31.1 11.1 2.8.5 5.7 1 6.5 1.2.8.1 5.1.6 9.5.9 10.8.8 265.5 1.1 265.5.2 0-.3-2.1-1.7-4.7-2.9-14.4-6.9-33.2-19.8-42.1-28.7-25.5-25.4-30-53.1-14-86.1 5.5-11.4 7.5-14.9 15.7-26.1 13.6-18.8 40-46.2 77.2-80.1 1.5-1.3 7.7-7.1 13.9-12.9 6.2-5.8 12.4-11.6 13.9-12.8 1.4-1.3 5.3-5 8.6-8.1 3.3-3.1 9.6-9 14-13.1 7.9-7.2 15.2-14.1 31.1-29 7.8-7.4 29.1-27.2 36.9-34.5 2.2-2 7.4-6.9 11.5-10.8 4.1-3.9 10.7-10 14.5-13.6 3.9-3.6 10.9-10.2 15.6-14.6 4.6-4.4 14.5-13.7 21.9-20.7 16.9-15.9 20.8-19.5 36.6-34.3 7-6.6 14.6-13.8 16.9-16 2.3-2.2 10.7-10.1 18.6-17.5 7.9-7.4 18-16.9 22.4-21.1 4.4-4.3 9.6-9.1 11.5-10.9 1.9-1.8 9.7-9.2 17.4-16.4 7.6-7.2 15.5-14.6 17.5-16.5 5.6-5.3 32.5-30.7 42.5-40.2 5-4.8 10.9-10.3 13.1-12.4 4.3-3.9 28.3-26.7 42.3-40 4.7-4.4 9.9-9.4 11.7-11 1.7-1.7 9.9-9.4 18.1-17.1 8.2-7.8 16.5-15.7 18.5-17.5 2-1.9 10.1-9.5 17.9-16.9 7.8-7.4 15.4-14.6 16.9-15.9 8.4-7.8 32-30.2 41.5-39.6 24.8-24.3 41-52.6 48.2-84 4.8-21.1 4.2-51.3-1.5-73.5-8.1-31-28-55-58-70-8.7-4.3-23.4-9.5-29.8-10.5-2.1-.3-5-.8-6.3-1.2-1.4-.4-63.9-.9-139-1l-136.5-.3 5.2 3z"/><path d="M739.2 982.2c-.9.3-4.9 3.7-8.8 7.5-7.3 6.9-26.5 25-31.9 29.8-33 29.8-75.2 73-87 89-32 43.6-29.7 81.9 7 112.1 5.7 4.7 16.9 12.1 23.3 15.3l4.4 2.2h298.6c164.3 0 300.4-.1 302.5-.1h3.7l-.2-128.2-.3-128.2-254.8-.1c-140.2 0-255.6.3-256.5.7z"/></svg>